<svg width="297" height="79" viewBox="0 0 297 79" fill="none" xmlns="http://www.w3.org/2000/svg">
<g clip-path="url(#clip0_333_8)">
<path d="M19.4418 57.3765H27.5891V79.0001H47.0206V1.15942H27.5891V38.0509H19.4418V1.15942H0V79.0001H19.4418V57.3765Z" fill="white"/>
<path d="M144.395 69.5909C144.395 51.9008 137.532 45.5038 127.749 38.0509C121.351 33.1652 118.67 30.95 118.67 24.7808C118.67 21.5201 119.022 19.4292 120.999 19.4292C122.862 19.4292 123.68 21.5201 123.68 29.0868H142.998C142.998 8.95385 136.01 -0.0102539 120.999 -0.0102539C105.988 -0.0102539 99.2381 8.95385 99.2381 24.7808C99.2381 43.1644 108.669 48.4021 117.158 55.3891C124.488 61.5584 124.953 64.0013 124.953 69.5909C124.953 73.7831 124.84 75.9879 122.272 75.9879C120.181 75.9879 118.897 74.1247 118.897 61.6723H99.4555C99.4555 68.7732 99.9524 74.4559 100.957 78.9898H143.526C144.095 76.1949 144.375 73.0585 144.375 69.5909H144.395Z" fill="white"/>
<path d="M167.667 57.3765H175.815V79.0001H195.257V1.15942H175.815V38.0509H167.667V1.15942H148.236V79.0001H167.667V57.3765Z" fill="white"/>
<path d="M248.137 0.745361H228.115L221.583 38.5788C221.552 38.7651 221.272 38.7444 221.272 38.5478V0.745361H201.83V79.0001H221.272V56.0412C221.272 55.8445 221.552 55.8238 221.583 56.0102L225.548 78.9897H245.269L239.171 47.2945L248.137 0.745361Z" fill="white"/>
<path d="M297 68.6593V1.15942H277.558V67.148C277.558 74.1351 277.444 75.9879 274.535 75.9879C271.626 75.9879 271.512 74.1247 271.512 67.148V1.15942H252.071V68.6593C252.071 72.5617 252.433 75.9983 253.116 78.9897H295.944C296.638 75.9879 296.99 72.5617 296.99 68.6593H297Z" fill="white"/>
<path d="M86.898 1.15942H60.4787L51.5239 78.9897H95.8528L86.898 1.15942ZM73.7608 60.1196C63.6362 60.1196 71.8767 29.7183 73.4917 24.0562C73.5641 23.787 73.9472 23.787 74.0196 24.0562C75.645 29.7286 83.8855 60.1196 73.7505 60.1196H73.7608Z" fill="white"/>
</g>
<defs>
<clipPath id="clip0_333_8">
<rect width="297" height="79" fill="white"/>
</clipPath>
</defs>
</svg>
